<svg width="309" height="31" viewBox="0 0 309 31" fill="none" xmlns="http://www.w3.org/2000/svg">
<path d="M10.983 30.3977C8.97538 30.3977 7.18561 30.0284 5.61364 29.2898C4.05114 28.5511 2.81061 27.5331 1.89205 26.2358C0.973485 24.9384 0.495265 23.4517 0.457386 21.7756H6.4233C6.48958 22.9025 6.96307 23.8163 7.84375 24.517C8.72443 25.2178 9.77083 25.5682 10.983 25.5682C11.9489 25.5682 12.8011 25.3551 13.5398 24.929C14.2879 24.4934 14.8703 23.892 15.2869 23.125C15.7131 22.3485 15.9261 21.4583 15.9261 20.4545C15.9261 19.4318 15.7083 18.5322 15.2727 17.7557C14.8466 16.9792 14.2547 16.3731 13.4972 15.9375C12.7396 15.5019 11.8731 15.2794 10.8977 15.2699C10.0455 15.2699 9.21686 15.4451 8.41193 15.7955C7.61648 16.1458 6.99621 16.6241 6.55114 17.2301L1.08239 16.25L2.46023 0.90909H20.2443V5.9375H7.53125L6.77841 13.2244H6.94886C7.46023 12.5047 8.23201 11.9081 9.2642 11.4347C10.2964 10.9612 11.4517 10.7244 12.7301 10.7244C14.482 10.7244 16.0445 11.1364 17.4176 11.9602C18.7907 12.7841 19.875 13.9157 20.6705 15.3551C21.4659 16.785 21.8589 18.4328 21.8494 20.2983C21.8589 22.2585 21.4044 24.0009 20.4858 25.5256C19.5767 27.0407 18.303 28.2339 16.6648 29.1051C15.036 29.9669 13.142 30.3977 10.983 30.3977Z" fill="#EA1701"/>
<path d="M26.3097 30V0.90909H32.4602V12.9119H44.946V0.90909H51.0824V30H44.946V17.983H32.4602V30H26.3097ZM75.4432 10.3125C75.2443 9.62121 74.965 9.01042 74.6051 8.48011C74.2453 7.94034 73.8049 7.4858 73.2841 7.11648C72.7727 6.73769 72.1856 6.44886 71.5227 6.25C70.8693 6.05114 70.1449 5.9517 69.3494 5.9517C67.8627 5.9517 66.5559 6.32102 65.429 7.05966C64.3116 7.79829 63.4403 8.87311 62.8153 10.2841C62.1903 11.6856 61.8778 13.3996 61.8778 15.4261C61.8778 17.4527 62.1856 19.1761 62.8011 20.5966C63.4167 22.017 64.2879 23.1013 65.4148 23.8494C66.5417 24.5881 67.8722 24.9574 69.4062 24.9574C70.7983 24.9574 71.9867 24.7112 72.9716 24.2188C73.9659 23.7169 74.7235 23.0114 75.2443 22.1023C75.7746 21.1932 76.0398 20.1184 76.0398 18.8778L77.2898 19.0625H69.7898V14.4318H81.9631V18.0966C81.9631 20.6534 81.4233 22.8504 80.3438 24.6875C79.2642 26.5152 77.7775 27.9261 75.8835 28.9205C73.9896 29.9053 71.821 30.3977 69.3778 30.3977C66.6506 30.3977 64.2547 29.7964 62.1903 28.5938C60.1259 27.3816 58.5161 25.6629 57.3608 23.4375C56.215 21.2027 55.642 18.5511 55.642 15.483C55.642 13.125 55.983 11.0227 56.6648 9.17614C57.3561 7.32008 58.322 5.74811 59.5625 4.46023C60.803 3.17235 62.2472 2.19223 63.8949 1.51989C65.5426 0.847537 67.3277 0.511363 69.25 0.511363C70.8977 0.511363 72.4318 0.75284 73.8523 1.2358C75.2727 1.70928 76.5322 2.38163 77.6307 3.25284C78.7386 4.12405 79.643 5.16098 80.3438 6.36364C81.0445 7.55682 81.4943 8.87311 81.6932 10.3125H75.4432ZM120.173 0.90909V30H114.861L102.205 11.6903H101.991V30H95.8409V0.90909H101.239L113.795 19.2045H114.051V0.90909H120.173ZM135.085 30.4261C132.84 30.4261 130.908 29.9716 129.289 29.0625C127.679 28.1439 126.439 26.8466 125.567 25.1705C124.696 23.4848 124.261 21.4915 124.261 19.1903C124.261 16.946 124.696 14.9763 125.567 13.2812C126.439 11.5862 127.665 10.2652 129.246 9.31818C130.837 8.37121 132.703 7.89773 134.843 7.89773C136.282 7.89773 137.622 8.12973 138.863 8.59375C140.113 9.0483 141.202 9.73485 142.13 10.6534C143.067 11.572 143.797 12.7273 144.317 14.1193C144.838 15.5019 145.099 17.1212 145.099 18.9773V20.6392H126.675V16.8892H139.403C139.403 16.018 139.213 15.2462 138.835 14.5739C138.456 13.9015 137.93 13.3759 137.258 12.9972C136.595 12.6089 135.823 12.4148 134.942 12.4148C134.024 12.4148 133.21 12.6278 132.499 13.054C131.799 13.4706 131.249 14.0341 130.852 14.7443C130.454 15.4451 130.25 16.2263 130.241 17.0881V20.6534C130.241 21.733 130.44 22.6657 130.837 23.4517C131.245 24.2377 131.817 24.8438 132.556 25.2699C133.295 25.696 134.171 25.9091 135.184 25.9091C135.856 25.9091 136.472 25.8144 137.031 25.625C137.589 25.4356 138.067 25.1515 138.465 24.7727C138.863 24.3939 139.166 23.9299 139.374 23.3807L144.971 23.75C144.687 25.0947 144.104 26.2689 143.224 27.2727C142.353 28.267 141.226 29.0436 139.843 29.6023C138.47 30.1515 136.884 30.4261 135.085 30.4261ZM153.195 30L147.258 8.18182H153.38L156.761 22.8409H156.96L160.482 8.18182H166.491L170.07 22.7557H170.255L173.579 8.18182H179.687L173.763 30H167.357L163.607 16.2784H163.337L159.587 30H153.195ZM201.068 14.4034L195.528 14.7443C195.434 14.2708 195.23 13.8447 194.918 13.4659C194.605 13.0777 194.193 12.7699 193.682 12.5426C193.18 12.3059 192.579 12.1875 191.878 12.1875C190.94 12.1875 190.15 12.3864 189.506 12.7841C188.862 13.1723 188.54 13.6932 188.54 14.3466C188.54 14.8674 188.748 15.3078 189.165 15.6676C189.581 16.0275 190.296 16.3163 191.31 16.5341L195.259 17.3295C197.38 17.7652 198.961 18.4659 200.003 19.4318C201.045 20.3977 201.565 21.6667 201.565 23.2386C201.565 24.6686 201.144 25.9233 200.301 27.0028C199.468 28.0824 198.322 28.9252 196.864 29.5312C195.415 30.1278 193.743 30.4261 191.849 30.4261C188.961 30.4261 186.66 29.8248 184.946 28.6222C183.241 27.41 182.242 25.7623 181.949 23.679L187.901 23.3665C188.08 24.2472 188.516 24.9195 189.207 25.3835C189.899 25.8381 190.784 26.0653 191.864 26.0653C192.924 26.0653 193.777 25.8617 194.42 25.4545C195.074 25.0379 195.405 24.5028 195.415 23.8494C195.405 23.3002 195.173 22.8504 194.719 22.5C194.264 22.1402 193.563 21.8655 192.616 21.6761L188.838 20.9233C186.707 20.4972 185.121 19.7585 184.08 18.7074C183.047 17.6562 182.531 16.3163 182.531 14.6875C182.531 13.286 182.91 12.0786 183.668 11.0653C184.435 10.0521 185.509 9.27083 186.892 8.72159C188.284 8.17235 189.913 7.89773 191.778 7.89773C194.534 7.89773 196.703 8.48011 198.284 9.64489C199.875 10.8097 200.803 12.3958 201.068 14.4034ZM211.427 0.90909V30H205.376V0.90909H211.427ZM226.217 30.4261C223.973 30.4261 222.041 29.9716 220.422 29.0625C218.812 28.1439 217.571 26.8466 216.7 25.1705C215.829 23.4848 215.393 21.4915 215.393 19.1903C215.393 16.946 215.829 14.9763 216.7 13.2812C217.571 11.5862 218.798 10.2652 220.379 9.31818C221.97 8.37121 223.836 7.89773 225.976 7.89773C227.415 7.89773 228.755 8.12973 229.996 8.59375C231.246 9.0483 232.335 9.73485 233.263 10.6534C234.2 11.572 234.929 12.7273 235.45 14.1193C235.971 15.5019 236.232 17.1212 236.232 18.9773V20.6392H217.808V16.8892H230.536C230.536 16.018 230.346 15.2462 229.967 14.5739C229.589 13.9015 229.063 13.3759 228.391 12.9972C227.728 12.6089 226.956 12.4148 226.075 12.4148C225.157 12.4148 224.342 12.6278 223.632 13.054C222.931 13.4706 222.382 14.0341 221.984 14.7443C221.587 15.4451 221.383 16.2263 221.374 17.0881V20.6534C221.374 21.733 221.572 22.6657 221.97 23.4517C222.377 24.2377 222.95 24.8438 223.689 25.2699C224.428 25.696 225.304 25.9091 226.317 25.9091C226.989 25.9091 227.605 25.8144 228.163 25.625C228.722 25.4356 229.2 25.1515 229.598 24.7727C229.996 24.3939 230.299 23.9299 230.507 23.3807L236.104 23.75C235.82 25.0947 235.237 26.2689 234.357 27.2727C233.485 28.267 232.358 29.0436 230.976 29.6023C229.603 30.1515 228.017 30.4261 226.217 30.4261ZM251.786 8.18182V12.7273H238.646V8.18182H251.786ZM241.629 2.95455H247.68V23.2955C247.68 23.8542 247.766 24.2898 247.936 24.6023C248.107 24.9053 248.343 25.1184 248.646 25.2415C248.959 25.3646 249.319 25.4261 249.726 25.4261C250.01 25.4261 250.294 25.4025 250.578 25.3551C250.862 25.2983 251.08 25.2557 251.232 25.2273L252.183 29.7301C251.88 29.8248 251.454 29.9337 250.905 30.0568C250.356 30.1894 249.688 30.2699 248.902 30.2983C247.444 30.3551 246.165 30.161 245.067 29.7159C243.978 29.2708 243.13 28.5795 242.524 27.642C241.918 26.7045 241.62 25.5208 241.629 24.0909V2.95455ZM267.332 8.18182V12.7273H254.193V8.18182H267.332ZM257.176 2.95455H263.227V23.2955C263.227 23.8542 263.313 24.2898 263.483 24.6023C263.653 24.9053 263.89 25.1184 264.193 25.2415C264.506 25.3646 264.866 25.4261 265.273 25.4261C265.557 25.4261 265.841 25.4025 266.125 25.3551C266.409 25.2983 266.627 25.2557 266.778 25.2273L267.73 29.7301C267.427 29.8248 267.001 29.9337 266.452 30.0568C265.902 30.1894 265.235 30.2699 264.449 30.2983C262.991 30.3551 261.712 30.161 260.614 29.7159C259.525 29.2708 258.677 28.5795 258.071 27.642C257.465 26.7045 257.167 25.5208 257.176 24.0909V2.95455ZM280.983 30.4261C278.739 30.4261 276.807 29.9716 275.188 29.0625C273.578 28.1439 272.337 26.8466 271.466 25.1705C270.595 23.4848 270.159 21.4915 270.159 19.1903C270.159 16.946 270.595 14.9763 271.466 13.2812C272.337 11.5862 273.563 10.2652 275.145 9.31818C276.736 8.37121 278.601 7.89773 280.741 7.89773C282.181 7.89773 283.521 8.12973 284.761 8.59375C286.011 9.0483 287.1 9.73485 288.028 10.6534C288.966 11.572 289.695 12.7273 290.216 14.1193C290.737 15.5019 290.997 17.1212 290.997 18.9773V20.6392H272.574V16.8892H285.301C285.301 16.018 285.112 15.2462 284.733 14.5739C284.354 13.9015 283.829 13.3759 283.156 12.9972C282.493 12.6089 281.722 12.4148 280.841 12.4148C279.922 12.4148 279.108 12.6278 278.398 13.054C277.697 13.4706 277.148 14.0341 276.75 14.7443C276.352 15.4451 276.149 16.2263 276.139 17.0881V20.6534C276.139 21.733 276.338 22.6657 276.736 23.4517C277.143 24.2377 277.716 24.8438 278.455 25.2699C279.193 25.696 280.069 25.9091 281.082 25.9091C281.755 25.9091 282.37 25.8144 282.929 25.625C283.488 25.4356 283.966 25.1515 284.364 24.7727C284.761 24.3939 285.064 23.9299 285.273 23.3807L290.869 23.75C290.585 25.0947 290.003 26.2689 289.122 27.2727C288.251 28.267 287.124 29.0436 285.741 29.6023C284.368 30.1515 282.782 30.4261 280.983 30.4261ZM294.946 30V8.18182H300.812V11.9886H301.04C301.438 10.6345 302.105 9.61174 303.043 8.92045C303.98 8.2197 305.06 7.86932 306.281 7.86932C306.584 7.86932 306.911 7.88826 307.261 7.92614C307.612 7.96402 307.92 8.0161 308.185 8.08239V13.4517C307.901 13.3665 307.508 13.2907 307.006 13.2244C306.504 13.1581 306.045 13.125 305.628 13.125C304.738 13.125 303.942 13.3191 303.241 13.7074C302.55 14.0862 302.001 14.6165 301.594 15.2983C301.196 15.9801 300.997 16.7661 300.997 17.6562V30H294.946Z" fill="white"/>
</svg>
