<svg width="313" height="31" viewBox="0 0 313 31" fill="none" xmlns="http://www.w3.org/2000/svg">
<path d="M10.983 30.3977C8.97538 30.3977 7.18561 30.0284 5.61364 29.2898C4.05114 28.5511 2.81061 27.5331 1.89205 26.2358C0.973485 24.9384 0.495265 23.4517 0.457386 21.7756H6.4233C6.48958 22.9025 6.96307 23.8163 7.84375 24.517C8.72443 25.2178 9.77083 25.5682 10.983 25.5682C11.9489 25.5682 12.8011 25.3551 13.5398 24.929C14.2879 24.4934 14.8703 23.892 15.2869 23.125C15.7131 22.3485 15.9261 21.4583 15.9261 20.4545C15.9261 19.4318 15.7083 18.5322 15.2727 17.7557C14.8466 16.9792 14.2547 16.3731 13.4972 15.9375C12.7396 15.5019 11.8731 15.2794 10.8977 15.2699C10.0455 15.2699 9.21686 15.4451 8.41193 15.7955C7.61648 16.1458 6.99621 16.6241 6.55114 17.2301L1.08239 16.25L2.46023 0.90909H20.2443V5.9375H7.53125L6.77841 13.2244H6.94886C7.46023 12.5047 8.23201 11.9081 9.2642 11.4347C10.2964 10.9612 11.4517 10.7244 12.7301 10.7244C14.482 10.7244 16.0445 11.1364 17.4176 11.9602C18.7907 12.7841 19.875 13.9157 20.6705 15.3551C21.4659 16.785 21.8589 18.4328 21.8494 20.2983C21.8589 22.2585 21.4044 24.0009 20.4858 25.5256C19.5767 27.0407 18.303 28.2339 16.6648 29.1051C15.036 29.9669 13.142 30.3977 10.983 30.3977Z" fill="#EA1701"/>
<path d="M26.3097 30V0.90909H32.4602V12.9119H44.946V0.90909H51.0824V30H44.946V17.983H32.4602V30H26.3097ZM75.4432 10.3125C75.2443 9.62121 74.965 9.01042 74.6051 8.48011C74.2453 7.94034 73.8049 7.4858 73.2841 7.11648C72.7727 6.73769 72.1856 6.44886 71.5227 6.25C70.8693 6.05114 70.1449 5.9517 69.3494 5.9517C67.8627 5.9517 66.5559 6.32102 65.429 7.05966C64.3116 7.79829 63.4403 8.87311 62.8153 10.2841C62.1903 11.6856 61.8778 13.3996 61.8778 15.4261C61.8778 17.4527 62.1856 19.1761 62.8011 20.5966C63.4167 22.017 64.2879 23.1013 65.4148 23.8494C66.5417 24.5881 67.8722 24.9574 69.4062 24.9574C70.7983 24.9574 71.9867 24.7112 72.9716 24.2188C73.9659 23.7169 74.7235 23.0114 75.2443 22.1023C75.7746 21.1932 76.0398 20.1184 76.0398 18.8778L77.2898 19.0625H69.7898V14.4318H81.9631V18.0966C81.9631 20.6534 81.4233 22.8504 80.3438 24.6875C79.2642 26.5152 77.7775 27.9261 75.8835 28.9205C73.9896 29.9053 71.821 30.3977 69.3778 30.3977C66.6506 30.3977 64.2547 29.7964 62.1903 28.5938C60.1259 27.3816 58.5161 25.6629 57.3608 23.4375C56.215 21.2027 55.642 18.5511 55.642 15.483C55.642 13.125 55.983 11.0227 56.6648 9.17614C57.3561 7.32008 58.322 5.74811 59.5625 4.46023C60.803 3.17235 62.2472 2.19223 63.8949 1.51989C65.5426 0.847537 67.3277 0.511363 69.25 0.511363C70.8977 0.511363 72.4318 0.75284 73.8523 1.2358C75.2727 1.70928 76.5322 2.38163 77.6307 3.25284C78.7386 4.12405 79.643 5.16098 80.3438 6.36364C81.0445 7.55682 81.4943 8.87311 81.6932 10.3125H75.4432Z" fill="white"/>
<path d="M96.8459 30V0.90909H107.755C109.99 0.90909 111.865 1.32576 113.38 2.15909C114.905 2.99242 116.055 4.13826 116.832 5.59659C117.618 7.04545 118.011 8.69318 118.011 10.5398C118.011 12.4053 117.618 14.0625 116.832 15.5114C116.046 16.9602 114.886 18.1013 113.352 18.9347C111.817 19.7585 109.928 20.1705 107.684 20.1705H100.454V15.8381H106.974C108.281 15.8381 109.351 15.6108 110.184 15.1562C111.017 14.7017 111.633 14.0767 112.031 13.2812C112.438 12.4858 112.641 11.572 112.641 10.5398C112.641 9.50758 112.438 8.59848 112.031 7.8125C111.633 7.02652 111.013 6.41572 110.17 5.98011C109.336 5.53504 108.262 5.3125 106.945 5.3125H102.116V30H96.8459ZM123.082 30H117.457L127.698 0.90909H134.204L144.46 30H138.835L131.065 6.875H130.837L123.082 30ZM123.266 18.5938H138.607V22.8267H123.266V18.5938ZM148.291 30V0.90909H159.2C161.435 0.90909 163.31 1.29735 164.825 2.07386C166.35 2.85038 167.5 3.93939 168.277 5.34091C169.063 6.73295 169.456 8.35701 169.456 10.2131C169.456 12.0786 169.058 13.6979 168.263 15.071C167.477 16.4347 166.317 17.4905 164.783 18.2386C163.249 18.9773 161.364 19.3466 159.129 19.3466H151.359V14.9716H158.419C159.726 14.9716 160.796 14.7917 161.629 14.4318C162.463 14.0625 163.078 13.5275 163.476 12.8267C163.883 12.1165 164.087 11.2453 164.087 10.2131C164.087 9.18087 163.883 8.30019 163.476 7.57102C163.069 6.83239 162.448 6.27367 161.615 5.89489C160.782 5.50663 159.707 5.3125 158.391 5.3125H153.561V30H148.291ZM163.32 16.8182L170.521 30H164.641L157.567 16.8182H163.32ZM173.028 5.3267V0.90909H196.239V5.3267H187.247V30H182.02V5.3267H173.028ZM224.619 0.90909V30H219.932L206.224 10.1847H205.983V30H200.713V0.90909H205.429L219.122 20.7386H219.378V0.90909H224.619ZM230.362 30V0.90909H249.282V5.3267H235.631V13.2244H248.302V17.642H235.631V25.5824H249.396V30H230.362ZM254.658 30V0.90909H265.567C267.802 0.90909 269.677 1.29735 271.192 2.07386C272.717 2.85038 273.868 3.93939 274.644 5.34091C275.43 6.73295 275.823 8.35701 275.823 10.2131C275.823 12.0786 275.425 13.6979 274.63 15.071C273.844 16.4347 272.684 17.4905 271.15 18.2386C269.616 18.9773 267.731 19.3466 265.496 19.3466H257.727V14.9716H264.786C266.093 14.9716 267.163 14.7917 267.996 14.4318C268.83 14.0625 269.445 13.5275 269.843 12.8267C270.25 12.1165 270.454 11.2453 270.454 10.2131C270.454 9.18087 270.25 8.30019 269.843 7.57102C269.436 6.83239 268.816 6.27367 267.982 5.89489C267.149 5.50663 266.074 5.3125 264.758 5.3125H259.928V30H254.658ZM269.687 16.8182L276.888 30H271.008L263.934 16.8182H269.687ZM296.484 8.90625C296.351 7.66572 295.792 6.69981 294.808 6.00852C293.832 5.31723 292.563 4.97159 291.001 4.97159C289.902 4.97159 288.96 5.13731 288.174 5.46875C287.388 5.80019 286.787 6.25 286.37 6.81818C285.953 7.38636 285.74 8.03504 285.731 8.7642C285.731 9.37027 285.868 9.89583 286.143 10.3409C286.427 10.786 286.81 11.1648 287.293 11.4773C287.776 11.7803 288.311 12.036 288.898 12.2443C289.486 12.4527 290.077 12.6278 290.674 12.7699L293.401 13.4517C294.5 13.7074 295.556 14.053 296.569 14.4886C297.592 14.9242 298.505 15.4735 299.31 16.1364C300.125 16.7992 300.769 17.5994 301.242 18.5369C301.716 19.4744 301.952 20.5729 301.952 21.8324C301.952 23.5369 301.517 25.0379 300.646 26.3352C299.774 27.6231 298.515 28.6316 296.867 29.3608C295.229 30.0805 293.245 30.4403 290.915 30.4403C288.652 30.4403 286.687 30.09 285.021 29.3892C283.363 28.6884 282.066 27.6657 281.129 26.321C280.201 24.9763 279.699 23.3381 279.623 21.4062H284.808C284.883 22.4195 285.196 23.2623 285.745 23.9347C286.294 24.607 287.009 25.1089 287.89 25.4403C288.78 25.7718 289.774 25.9375 290.873 25.9375C292.019 25.9375 293.022 25.767 293.884 25.4261C294.755 25.0758 295.437 24.5928 295.93 23.9773C296.422 23.3523 296.673 22.6231 296.683 21.7898C296.673 21.0322 296.451 20.4072 296.015 19.9148C295.579 19.4129 294.969 18.9962 294.183 18.6648C293.406 18.3239 292.497 18.0208 291.455 17.7557L288.146 16.9034C285.75 16.2879 283.856 15.3551 282.464 14.1051C281.081 12.8456 280.39 11.1742 280.39 9.09091C280.39 7.37689 280.854 5.87595 281.782 4.58807C282.719 3.30019 283.993 2.30114 285.603 1.59091C287.213 0.871211 289.036 0.511363 291.072 0.511363C293.136 0.511363 294.945 0.871211 296.498 1.59091C298.06 2.30114 299.287 3.29072 300.177 4.55966C301.067 5.81913 301.526 7.26799 301.555 8.90625H296.484ZM309.591 26.5057C308.729 26.5057 307.991 26.2027 307.375 25.5966C306.759 24.9811 306.456 24.2424 306.466 23.3807C306.456 22.5284 306.759 21.7992 307.375 21.1932C307.991 20.5871 308.729 20.2841 309.591 20.2841C310.424 20.2841 311.149 20.5871 311.764 21.1932C312.389 21.7992 312.706 22.5284 312.716 23.3807C312.706 23.9583 312.555 24.4839 312.261 24.9574C311.977 25.4309 311.598 25.8097 311.125 26.0938C310.661 26.3684 310.15 26.5057 309.591 26.5057ZM309.591 12.0881C308.729 12.0881 307.991 11.785 307.375 11.179C306.759 10.5634 306.456 9.82481 306.466 8.96307C306.456 8.11079 306.759 7.38163 307.375 6.77557C307.991 6.16004 308.729 5.85227 309.591 5.85227C310.424 5.85227 311.149 6.16004 311.764 6.77557C312.389 7.38163 312.706 8.11079 312.716 8.96307C312.706 9.53125 312.555 10.0521 312.261 10.5256C311.977 10.9991 311.598 11.3778 311.125 11.6619C310.661 11.946 310.15 12.0881 309.591 12.0881Z" fill="#B8B8B8"/>
</svg>
