<svg width="22" height="22" viewBox="0 0 22 22" fill="none" xmlns="http://www.w3.org/2000/svg">
<path d="M11 0C4.91979 0 0 4.92022 0 11C0 17.0802 4.92022 22 11 22C17.0802 22 22 17.0798 22 11C22 4.91979 17.0798 0 11 0ZM11 20.2812C5.86983 20.2812 1.71875 16.1298 1.71875 11C1.71875 5.86983 5.87018 1.71875 11 1.71875C16.1302 1.71875 20.2812 5.87018 20.2812 11C20.2812 16.1302 16.1298 20.2812 11 20.2812Z" fill="#BA1B30"/>
<path d="M11 5.53772C10.5254 5.53772 10.1406 5.92246 10.1406 6.3971V11.9312C10.1406 12.4058 10.5254 12.7905 11 12.7905C11.4746 12.7905 11.8594 12.4058 11.8594 11.9312V6.3971C11.8594 5.92246 11.4746 5.53772 11 5.53772Z" fill="#BA1B30"/>
<path d="M11 16.1631C11.6407 16.1631 12.1602 15.6437 12.1602 15.0029C12.1602 14.3622 11.6407 13.8428 11 13.8428C10.3593 13.8428 9.83984 14.3622 9.83984 15.0029C9.83984 15.6437 10.3593 16.1631 11 16.1631Z" fill="#BA1B30"/>
</svg>
