<svg width="279" height="68" viewBox="0 0 279 68" fill="none" xmlns="http://www.w3.org/2000/svg">
<path fill-rule="evenodd" clip-rule="evenodd" d="M172.334 24.674C176.103 24.706 179.557 26.087 182.195 28.38L182.226 14.8135H187.628L187.502 55.136H182.101V51.901C179.431 54.162 176.008 55.544 172.271 55.544H172.24C163.824 55.512 157.009 48.572 157.041 40.062C157.072 31.552 163.887 24.674 172.303 24.674H172.334ZM165.017 47.504C166.964 49.483 169.539 50.582 172.303 50.582C177.956 50.582 182.572 45.903 182.603 40.156C182.603 37.33 181.535 34.692 179.588 32.713C177.641 30.735 175.066 29.636 172.334 29.636H172.303C166.65 29.636 162.034 34.315 162.003 40.062C162.003 42.888 163.07 45.526 165.017 47.504ZM87.6081 55.167H81.8301V14.8449H106.293V20.623H87.6081V30.484H105.822V35.791H87.6081V55.167ZM130.379 28.474C132.389 26.119 135.686 24.706 139.204 24.706C146.709 24.706 151.388 29.448 151.357 37.11V55.167H145.861V38.052C145.861 32.619 142.846 29.353 137.822 29.353C132.734 29.353 129.72 32.619 129.72 38.052V55.167H124.161V25.208H129.72V29.291L130.379 28.474ZM273.422 25.208V28.348C270.753 26.056 267.33 24.674 263.561 24.674C255.145 24.674 248.299 31.583 248.299 40.125C248.299 48.635 255.114 55.575 263.561 55.575C267.33 55.575 270.753 54.194 273.422 51.901V55.136H278.823V25.208H273.422ZM263.561 50.582C257.877 50.582 253.261 45.872 253.261 40.125C253.261 34.347 257.877 29.667 263.561 29.667C269.245 29.667 273.862 34.378 273.862 40.125C273.862 45.903 269.245 50.582 263.561 50.582ZM208.354 24.706C199.938 24.706 193.092 31.615 193.092 40.156C193.092 48.667 199.906 55.607 208.354 55.607C216.77 55.607 223.616 48.698 223.616 40.156C223.616 31.615 216.77 24.706 208.354 24.706ZM208.354 50.582C202.67 50.582 198.054 45.872 198.054 40.125C198.054 34.347 202.67 29.668 208.354 29.668C214.038 29.668 218.654 34.378 218.654 40.125C218.654 45.903 214.038 50.582 208.354 50.582ZM111.694 49.86V42.072V25.114H117.535V55.073H111.694V49.86ZM111.694 17.828V19.336V20.623H117.535V14.8449H111.694V17.828ZM234.921 30.767C235.769 28.537 238.282 24.925 244.405 24.925C244.453 24.925 244.511 24.925 244.575 24.925C245.102 24.921 246.111 24.915 246.446 25.082V29.73C246.446 29.73 242.395 29.039 239.035 31.238C235.361 33.624 234.921 36.922 234.921 39.748V55.073H229.08V48.384V40.596V25.271H234.921V30.767Z" fill="white"/>
<path fill-rule="evenodd" clip-rule="evenodd" d="M14.6245 13.3064C14.7185 13.6832 15.0955 13.903 15.4725 13.7774L46.8755 5.36128C47.6295 5.17288 47.5355 4.07368 46.7495 4.01088L12.2685 0.901979C11.7975 0.870579 11.4215 1.31018 11.5465 1.74988L14.6245 13.3064ZM17.7645 33.876L13.1795 16.7606L12.5825 14.531L10.1335 5.42398C9.94553 4.73308 9.00253 4.73308 8.81453 5.42398L0.0216288 38.241C-0.103971 38.743 0.335629 39.214 0.869529 39.089L17.2935 34.692C17.6385 34.629 17.8585 34.252 17.7645 33.876ZM53.3765 5.98948C54.3495 5.73828 55.4175 6.17788 55.9195 7.05718L64.1165 21.283C64.3355 21.66 64.1475 22.162 63.7075 22.288L20.8425 33.719C20.4655 33.844 20.0885 33.625 19.9945 33.248L15.5975 16.8237C15.4725 16.4468 15.6915 16.07 16.0685 15.9758L53.3765 5.98948ZM18.7065 37.424C18.6125 37.047 18.2355 36.827 17.8585 36.953L1.43473 41.35C0.93233 41.475 0.743835 42.135 1.12073 42.48L25.2385 66.786C25.7405 67.289 26.5575 66.818 26.4005 66.127L18.7065 37.424ZM21.4075 35.98L62.2945 25.02C62.9545 24.863 63.4255 25.585 63.0165 26.119L30.2635 67.446C29.9175 67.886 29.2265 67.729 29.0695 67.195L20.9365 36.828C20.8105 36.451 21.0305 36.074 21.4075 35.98Z" fill="white"/>
</svg>
