<svg width="262" height="63" viewBox="0 0 262 63" fill="none" xmlns="http://www.w3.org/2000/svg">
<mask id="path-1-inside-1_4664_1293" fill="white">
<path fill-rule="evenodd" clip-rule="evenodd" d="M27.1864 0H127.824H234.945L261.95 31.3584L234.945 62.7168H127.824H27.1864L0 31.3584L27.1864 0Z"/>
</mask>
<path fill-rule="evenodd" clip-rule="evenodd" d="M27.1864 0H127.824H234.945L261.95 31.3584L234.945 62.7168H127.824H27.1864L0 31.3584L27.1864 0Z" fill="url(#paint0_linear_4664_1293)"/>
<path d="M27.1864 0V-6H24.4472L22.6529 -3.93034L27.1864 0ZM234.945 0L239.491 -3.91531L237.696 -6H234.945V0ZM261.95 31.3584L266.496 35.2737L269.868 31.3584L266.496 27.4431L261.95 31.3584ZM234.945 62.7168V68.7168H237.696L239.491 66.6321L234.945 62.7168ZM27.1864 62.7168L22.6529 66.6471L24.4472 68.7168H27.1864V62.7168ZM0 31.3584L-4.53348 27.4281L-7.94091 31.3584L-4.53348 35.2887L0 31.3584ZM127.824 -6H27.1864V6H127.824V-6ZM127.824 6H234.945V-6H127.824V6ZM230.398 3.91531L257.403 35.2737L266.496 27.4431L239.491 -3.91531L230.398 3.91531ZM257.403 27.4431L230.398 58.8015L239.491 66.6321L266.496 35.2737L257.403 27.4431ZM234.945 56.7168H127.824V68.7168H234.945V56.7168ZM27.1864 68.7168H127.824V56.7168H27.1864V68.7168ZM-4.53348 35.2887L22.6529 66.6471L31.7199 58.7865L4.53348 27.4281L-4.53348 35.2887ZM22.6529 -3.93034L-4.53348 27.4281L4.53348 35.2887L31.7199 3.93034L22.6529 -3.93034Z" fill="url(#paint1_linear_4664_1293)" mask="url(#path-1-inside-1_4664_1293)"/>
<defs>
<linearGradient id="paint0_linear_4664_1293" x1="130.975" y1="0" x2="130.975" y2="62.7168" gradientUnits="userSpaceOnUse">
<stop stop-color="#D4BF56"/>
<stop offset="0.802083" stop-color="#F7F279"/>
</linearGradient>
<linearGradient id="paint1_linear_4664_1293" x1="130.774" y1="25.3134" x2="130.774" y2="36.6478" gradientUnits="userSpaceOnUse">
<stop stop-color="#FFFBB2"/>
<stop offset="0.192708" stop-color="#CFAE65"/>
<stop offset="0.338542" stop-color="#E9C568"/>
<stop offset="0.484375" stop-color="#A6823F"/>
<stop offset="0.640625" stop-color="#F1E298"/>
<stop offset="0.78125" stop-color="#CEA24A"/>
</linearGradient>
</defs>
</svg>
